<mxfile host="app.diagrams.net" modified="2022-05-18T11:52:03.241Z" agent="5.0 (Windows NT 10.0; Win64; x64) AppleWebKit/537.36 (KHTML, like Gecko) Chrome/101.0.4951.67 Safari/537.36" etag="ewhrnheA2LAVGY9E-4M7" version="18.0.7" type="github">
  <diagram id="n_zmIGYUGU_LKXWFNHQx" name="Page-1">
    <mxGraphModel dx="1195" dy="815" grid="1" gridSize="10" guides="1" tooltips="1" connect="1" arrows="1" fold="1" page="1" pageScale="1" pageWidth="827" pageHeight="1169" math="0" shadow="0">
      <root>
        <mxCell id="0" />
        <mxCell id="1" parent="0" />
        <mxCell id="ARA-93hrc6RpABjxn4Fs-1" value="" style="shape=orEllipse;perimeter=ellipsePerimeter;whiteSpace=wrap;html=1;backgroundOutline=1;" vertex="1" parent="1">
          <mxGeometry x="100" y="250" width="50" height="50" as="geometry" />
        </mxCell>
        <mxCell id="ARA-93hrc6RpABjxn4Fs-2" value="" style="endArrow=classic;html=1;rounded=0;entryX=0;entryY=0.5;entryDx=0;entryDy=0;" edge="1" parent="1" target="ARA-93hrc6RpABjxn4Fs-1">
          <mxGeometry width="50" height="50" relative="1" as="geometry">
            <mxPoint x="20" y="275" as="sourcePoint" />
            <mxPoint x="250" y="310" as="targetPoint" />
          </mxGeometry>
        </mxCell>
        <mxCell id="ARA-93hrc6RpABjxn4Fs-13" style="edgeStyle=orthogonalEdgeStyle;rounded=0;orthogonalLoop=1;jettySize=auto;html=1;exitX=1;exitY=0.5;exitDx=0;exitDy=0;" edge="1" parent="1" source="ARA-93hrc6RpABjxn4Fs-3" target="ARA-93hrc6RpABjxn4Fs-12">
          <mxGeometry relative="1" as="geometry" />
        </mxCell>
        <mxCell id="ARA-93hrc6RpABjxn4Fs-3" value="&lt;font style=&quot;vertical-align: inherit;&quot;&gt;&lt;font style=&quot;vertical-align: inherit;&quot;&gt;比例环节P&lt;/font&gt;&lt;/font&gt;" style="rounded=0;whiteSpace=wrap;html=1;" vertex="1" parent="1">
          <mxGeometry x="250" y="190" width="116" height="40" as="geometry" />
        </mxCell>
        <mxCell id="ARA-93hrc6RpABjxn4Fs-14" style="edgeStyle=orthogonalEdgeStyle;rounded=0;orthogonalLoop=1;jettySize=auto;html=1;exitX=1;exitY=0.5;exitDx=0;exitDy=0;entryX=0;entryY=0.5;entryDx=0;entryDy=0;" edge="1" parent="1" source="ARA-93hrc6RpABjxn4Fs-4" target="ARA-93hrc6RpABjxn4Fs-12">
          <mxGeometry relative="1" as="geometry" />
        </mxCell>
        <mxCell id="ARA-93hrc6RpABjxn4Fs-4" value="&lt;font style=&quot;vertical-align: inherit;&quot;&gt;&lt;font style=&quot;vertical-align: inherit;&quot;&gt;积分环节I&lt;/font&gt;&lt;/font&gt;" style="rounded=0;whiteSpace=wrap;html=1;" vertex="1" parent="1">
          <mxGeometry x="250" y="255" width="116" height="40" as="geometry" />
        </mxCell>
        <mxCell id="ARA-93hrc6RpABjxn4Fs-15" style="edgeStyle=orthogonalEdgeStyle;rounded=0;orthogonalLoop=1;jettySize=auto;html=1;exitX=1;exitY=0.5;exitDx=0;exitDy=0;entryX=0.5;entryY=1;entryDx=0;entryDy=0;" edge="1" parent="1" source="ARA-93hrc6RpABjxn4Fs-5" target="ARA-93hrc6RpABjxn4Fs-12">
          <mxGeometry relative="1" as="geometry" />
        </mxCell>
        <mxCell id="ARA-93hrc6RpABjxn4Fs-5" value="&lt;font style=&quot;vertical-align: inherit;&quot;&gt;&lt;font style=&quot;vertical-align: inherit;&quot;&gt;微分环节D&lt;/font&gt;&lt;/font&gt;" style="rounded=0;whiteSpace=wrap;html=1;" vertex="1" parent="1">
          <mxGeometry x="250" y="320" width="116" height="40" as="geometry" />
        </mxCell>
        <mxCell id="ARA-93hrc6RpABjxn4Fs-6" value="" style="endArrow=classic;html=1;rounded=0;exitDx=0;exitDy=0;entryX=0;entryY=0.5;entryDx=0;entryDy=0;startArrow=none;" edge="1" parent="1" source="ARA-93hrc6RpABjxn4Fs-8" target="ARA-93hrc6RpABjxn4Fs-4">
          <mxGeometry width="50" height="50" relative="1" as="geometry">
            <mxPoint x="200" y="360" as="sourcePoint" />
            <mxPoint x="250" y="310" as="targetPoint" />
          </mxGeometry>
        </mxCell>
        <mxCell id="ARA-93hrc6RpABjxn4Fs-26" style="edgeStyle=orthogonalEdgeStyle;rounded=0;orthogonalLoop=1;jettySize=auto;html=1;entryX=0;entryY=0.5;entryDx=0;entryDy=0;" edge="1" parent="1" source="ARA-93hrc6RpABjxn4Fs-8" target="ARA-93hrc6RpABjxn4Fs-5">
          <mxGeometry relative="1" as="geometry">
            <Array as="points">
              <mxPoint x="180" y="340" />
            </Array>
          </mxGeometry>
        </mxCell>
        <mxCell id="ARA-93hrc6RpABjxn4Fs-27" style="edgeStyle=orthogonalEdgeStyle;rounded=0;orthogonalLoop=1;jettySize=auto;html=1;entryX=0;entryY=0.5;entryDx=0;entryDy=0;" edge="1" parent="1" source="ARA-93hrc6RpABjxn4Fs-8" target="ARA-93hrc6RpABjxn4Fs-3">
          <mxGeometry relative="1" as="geometry">
            <Array as="points">
              <mxPoint x="180" y="210" />
            </Array>
          </mxGeometry>
        </mxCell>
        <mxCell id="ARA-93hrc6RpABjxn4Fs-8" value="" style="shape=waypoint;sketch=0;fillStyle=solid;size=6;pointerEvents=1;points=[];fillColor=none;resizable=0;rotatable=0;perimeter=centerPerimeter;snapToPoint=1;" vertex="1" parent="1">
          <mxGeometry x="160" y="255" width="40" height="40" as="geometry" />
        </mxCell>
        <mxCell id="ARA-93hrc6RpABjxn4Fs-9" value="" style="endArrow=none;html=1;rounded=0;exitX=1;exitY=0.5;exitDx=0;exitDy=0;entryDx=0;entryDy=0;" edge="1" parent="1" source="ARA-93hrc6RpABjxn4Fs-1" target="ARA-93hrc6RpABjxn4Fs-8">
          <mxGeometry width="50" height="50" relative="1" as="geometry">
            <mxPoint x="150" y="275" as="sourcePoint" />
            <mxPoint x="224" y="275" as="targetPoint" />
          </mxGeometry>
        </mxCell>
        <mxCell id="ARA-93hrc6RpABjxn4Fs-17" style="edgeStyle=orthogonalEdgeStyle;rounded=0;orthogonalLoop=1;jettySize=auto;html=1;exitX=1;exitY=0.5;exitDx=0;exitDy=0;entryX=0;entryY=0.5;entryDx=0;entryDy=0;" edge="1" parent="1" source="ARA-93hrc6RpABjxn4Fs-12" target="ARA-93hrc6RpABjxn4Fs-16">
          <mxGeometry relative="1" as="geometry" />
        </mxCell>
        <mxCell id="ARA-93hrc6RpABjxn4Fs-12" value="" style="shape=orEllipse;perimeter=ellipsePerimeter;whiteSpace=wrap;html=1;backgroundOutline=1;" vertex="1" parent="1">
          <mxGeometry x="440" y="250" width="50" height="50" as="geometry" />
        </mxCell>
        <mxCell id="ARA-93hrc6RpABjxn4Fs-16" value="&lt;font style=&quot;vertical-align: inherit;&quot;&gt;&lt;font style=&quot;vertical-align: inherit;&quot;&gt;执行机构&lt;/font&gt;&lt;/font&gt;" style="rounded=0;whiteSpace=wrap;html=1;" vertex="1" parent="1">
          <mxGeometry x="560" y="255" width="116" height="40" as="geometry" />
        </mxCell>
        <mxCell id="ARA-93hrc6RpABjxn4Fs-18" value="" style="endArrow=classic;html=1;rounded=0;exitDx=0;exitDy=0;startArrow=none;" edge="1" parent="1" source="ARA-93hrc6RpABjxn4Fs-21">
          <mxGeometry width="50" height="50" relative="1" as="geometry">
            <mxPoint x="330" y="390" as="sourcePoint" />
            <mxPoint x="760" y="275" as="targetPoint" />
          </mxGeometry>
        </mxCell>
        <mxCell id="ARA-93hrc6RpABjxn4Fs-28" style="edgeStyle=orthogonalEdgeStyle;rounded=0;orthogonalLoop=1;jettySize=auto;html=1;entryX=1;entryY=0.5;entryDx=0;entryDy=0;" edge="1" parent="1" source="ARA-93hrc6RpABjxn4Fs-21" target="ARA-93hrc6RpABjxn4Fs-24">
          <mxGeometry relative="1" as="geometry">
            <Array as="points">
              <mxPoint x="720" y="410" />
            </Array>
          </mxGeometry>
        </mxCell>
        <mxCell id="ARA-93hrc6RpABjxn4Fs-21" value="" style="shape=waypoint;sketch=0;fillStyle=solid;size=6;pointerEvents=1;points=[];fillColor=none;resizable=0;rotatable=0;perimeter=centerPerimeter;snapToPoint=1;" vertex="1" parent="1">
          <mxGeometry x="700" y="255" width="40" height="40" as="geometry" />
        </mxCell>
        <mxCell id="ARA-93hrc6RpABjxn4Fs-22" value="" style="endArrow=none;html=1;rounded=0;exitX=1;exitY=0.5;exitDx=0;exitDy=0;" edge="1" parent="1" source="ARA-93hrc6RpABjxn4Fs-16" target="ARA-93hrc6RpABjxn4Fs-21">
          <mxGeometry width="50" height="50" relative="1" as="geometry">
            <mxPoint x="676" y="275" as="sourcePoint" />
            <mxPoint x="760" y="275" as="targetPoint" />
          </mxGeometry>
        </mxCell>
        <mxCell id="ARA-93hrc6RpABjxn4Fs-25" style="edgeStyle=orthogonalEdgeStyle;rounded=0;orthogonalLoop=1;jettySize=auto;html=1;" edge="1" parent="1" source="ARA-93hrc6RpABjxn4Fs-24" target="ARA-93hrc6RpABjxn4Fs-1">
          <mxGeometry relative="1" as="geometry" />
        </mxCell>
        <mxCell id="ARA-93hrc6RpABjxn4Fs-24" value="&lt;font style=&quot;vertical-align: inherit;&quot;&gt;&lt;font style=&quot;vertical-align: inherit;&quot;&gt;测量单元&lt;/font&gt;&lt;/font&gt;" style="rounded=0;whiteSpace=wrap;html=1;" vertex="1" parent="1">
          <mxGeometry x="250" y="390" width="116" height="40" as="geometry" />
        </mxCell>
      </root>
    </mxGraphModel>
  </diagram>
</mxfile>
